# xmcd
#
# Track frame offsets: 
#        150
#        13747
#        28333
#        40423
#        60300
#        75115
#        92556
#        108319
#        124593
#        138017
#        151212
#        166412
#        179791
#        196850
#        211201
#        229392
#        242051
#        257540
#        271097
#        287614
#
# Disc length: 4021 seconds
#
# Revision: 0
# Processed by: cddbd v1.5.1PL0 Copyright (c) Steve Scherf et al.
# Submitted via: ExactAudioCopy v0.95a5
#
DISCID=050fb314
DTITLE=Various Artist - Modas de Viola - Causos Vol 1
DYEAR=1900
DGENRE=Sertanejo
TTITLE0=Rei do Gado - Tiao Carreiro e Pardinho
TTITLE1=Prato do Dia - Liu e Leu
TTITLE2=A Caneta e a Enxada - Lourenco e Lorival
TTITLE3=Sementinha - Liu e Leu
TTITLE4=Cabocla Tereza - Rolando Boldrin
TTITLE5=Ultimo Julgamento - Leu Canhoto e Robertinho
TTITLE6=Nelore Valente - Jaco e Jacozinho
TTITLE7=O Milagre do Ladrao - Zilo e Zalo
TTITLE8=O Menino Cacador - Lourenco e Lorival
TTITLE9=A Moda do Genro - Jaco e Jacozinho
TTITLE10=Boi Soberano - Tiao Carreiro e Pardinho
TTITLE11=O Menino da Porteira - Tonico e Tinoco
TTITLE12=Couro de Boi - Liu e Leu
TTITLE13=O Menino e o Italiano - Liu e Leu
TTITLE14=Chico Mulato - Rolando Boldrin
TTITLE15=O Presidente e o Lavrador - Leu Canhoto e Robertinho
TTITLE16=Relogio Quebrado - Nestor e Nestorzinho
TTITLE17=A Alma do Ferreirinha - Zilo e Zalo
TTITLE18=A Cruz do Caminho - Lourenço e Lourival
TTITLE19=A Volta do Genro - Jaco e Jacozinho
EXTD=
EXTT0=
EXTT1=
EXTT2=
EXTT3=
EXTT4=
EXTT5=
EXTT6=
EXTT7=
EXTT8=
EXTT9=
EXTT10=
EXTT11=
EXTT12=
EXTT13=
EXTT14=
EXTT15=
EXTT16=
EXTT17=
EXTT18=
EXTT19=
PLAYORDER=
